<?xml version="1.0" encoding="UTF-8"?>
<svg width="122px" height="36px" viewBox="0 0 122 36" version="1.1" xmlns="http://www.w3.org/2000/svg" xmlns:xlink="http://www.w3.org/1999/xlink">
    <!-- Generator: Sketch 43.2 (39069) - http://www.bohemiancoding.com/sketch -->
    <title>app-store</title>
    <desc>Created with Sketch.</desc>
    <defs></defs>
    <g id="Website" stroke="none" stroke-width="1" fill="none" fill-rule="evenodd">
        <g id="mobile-release" transform="translate(-30.000000, -1090.000000)">
            <g id="Footer" transform="translate(30.000000, 1044.000000)">
                <g id="app-store" transform="translate(0.000000, 46.000000)">
                    <rect id="Rectangle-2" fill="#000000" x="0" y="0" width="122" height="36" rx="3.6"></rect>
                    <path d="M21.3464475,12.2247727 C20.4208433,12.2247727 19.0236445,11.1827273 17.5193378,11.2145455 C15.5818036,11.2431818 13.7689622,12.3584091 12.7762157,14.0925 C10.7235805,17.6275 12.2534651,22.8186364 14.218176,25.6759091 C15.2029294,27.0759091 16.3523412,28.6381818 17.8550492,28.5825 C19.3257848,28.5220455 19.875712,27.6502273 21.6501864,27.6502273 C23.4086745,27.6502273 23.9250306,28.5825 25.4597111,28.5475 C27.0375546,28.5220455 28.0318997,27.1427273 28.9798847,25.7315909 C30.1165075,24.1279545 30.5737144,22.5465909 30.5912993,22.4670455 C30.5545309,22.4543182 27.5235368,21.3040909 27.4947615,17.8247727 C27.4675849,14.9213636 29.8831081,13.5070455 29.9950119,13.4418182 C28.6281871,11.4579545 26.5068109,11.1859091 25.7602528,11.1636364 C25.6371586,11.1509091 25.5124658,11.1445455 25.3909702,11.1445455 C23.7443859,11.1445455 22.1889232,12.2247727 21.3464475,12.2247727 Z" id="Mask" fill="#BFBFBF"></path>
                    <path d="M22.377561,7.35181818 C21.6485877,8.20136364 20.9979471,9.59181818 21.1658028,10.8995455 C22.4510978,10.9965909 23.7715625,10.2552273 24.5980519,9.28477273 C25.3893716,8.3 25.9313057,6.96204545 25.7810349,5.60181818 C24.6348203,5.65113636 23.2040504,6.38931818 22.377561,7.35181818 Z" id="Clip-11" fill="#BFBFBF"></path>
                    <path d="M42.4914682,16.3929545 L44.8878079,16.3929545 L48.7836585,28.3820455 L46.727826,28.3820455 L45.6023936,24.8597727 L41.6873595,24.8597727 L40.6162804,28.3820455 L38.6148011,28.3820455 L42.4914682,16.3929545 Z M43.0286064,20.2525 L42.0278668,23.3834091 L45.2634849,23.3834091 L44.2419632,20.2525 C44.1364539,19.9327273 43.9350271,19.1786364 43.6360841,17.9934091 L43.5993157,17.9934091 C43.4810174,18.5025 43.2923796,19.2565909 43.0286064,20.2525 Z" id="Clip-14" fill="#BFBFBF"></path>
                    <path d="M52.2318939,21.1068182 C52.87614,20.0759091 53.8529002,19.5604545 55.1637732,19.5604545 C56.1868936,19.5604545 57.0437569,19.9629545 57.7279687,20.7679545 C58.413779,21.5761364 58.7558849,22.6372727 58.7558849,23.9529545 C58.7558849,25.4229545 58.3578272,26.5843182 57.5585144,27.4370455 C56.8439287,28.1975 55.9550929,28.5761364 54.8952041,28.5761364 C53.7521868,28.5761364 52.9304933,28.1672727 52.4285248,27.3495455 L52.3933551,27.3495455 L52.3933551,31.9043182 L50.4622154,31.9043182 L50.4622154,22.5831818 C50.4622154,21.6588636 50.438236,20.7090909 50.3902772,19.7354545 L52.0880176,19.7354545 L52.1967241,21.1068182 L52.2318939,21.1068182 Z M52.9752548,26.4156818 C53.3621222,26.85 53.8672879,27.0647727 54.485956,27.0647727 C55.211732,27.0647727 55.7776454,26.7847727 56.1820977,26.2295455 C56.58655,25.6711364 56.7895754,24.9361364 56.7895754,24.0229545 C56.7895754,23.1813636 56.6009376,22.4877273 56.2188661,21.9420455 C55.8000262,21.3725 55.2405073,21.0877273 54.537112,21.0877273 C54.0607216,21.0877273 53.6290927,21.2468182 53.2438239,21.5586364 C52.8553579,21.8736364 52.6011764,22.2856818 52.4828781,22.7963636 C52.423729,23.0334091 52.3949537,23.2290909 52.3949537,23.3818182 L52.3949537,24.8231818 C52.3949537,25.4515909 52.5867888,25.9813636 52.9752548,26.4156818 Z" id="Clip-17" fill="#BFBFBF"></path>
                    <path d="M62.2249025,21.1068182 C62.8675499,20.0759091 63.8443102,19.5604545 65.1551832,19.5604545 C66.1799022,19.5604545 67.0335682,19.9629545 67.7225759,20.7679545 C68.405189,21.5761364 68.7472949,22.6372727 68.7472949,23.9529545 C68.7472949,25.4229545 68.3492371,26.5843182 67.5499243,27.4370455 C66.8353387,28.1975 65.9465028,28.5761364 64.8866141,28.5761364 C63.7419981,28.5761364 62.9203046,28.1672727 62.4215334,27.3495455 L62.384765,27.3495455 L62.384765,31.9043182 L60.4552239,31.9043182 L60.4552239,22.5831818 C60.4552239,21.6588636 60.4312445,20.7090909 60.3832858,19.7354545 L62.0810261,19.7354545 L62.1881341,21.1068182 L62.2249025,21.1068182 Z M62.9650661,26.4156818 C63.3519335,26.8484091 63.8539019,27.0647727 64.4757673,27.0647727 C65.2047406,27.0647727 65.7674568,26.7847727 66.171909,26.2295455 C66.5795586,25.6711364 66.782584,24.9361364 66.782584,24.0229545 C66.782584,23.1813636 66.5891503,22.4877273 66.2086774,21.9420455 C65.7914361,21.3725 65.2335158,21.0877273 64.5285219,21.0877273 C64.0537301,21.0877273 63.6205026,21.2468182 63.2336352,21.5586364 C62.8451692,21.8736364 62.5925863,22.2856818 62.474288,22.7963636 C62.4151389,23.0334091 62.384765,23.2290909 62.384765,23.3818182 L62.384765,24.8231818 C62.384765,25.4515909 62.5797973,25.9813636 62.9650661,26.4156818 Z" id="Clip-20" fill="#BFBFBF"></path>
                    <path d="M73.7701765,17.1597727 C73.0316114,17.7897727 72.6623289,18.5979545 72.6623289,19.5843182 C72.6623289,21.0925 73.7174218,22.2379545 75.8244103,23.0206818 C76.6013424,23.3070455 77.1544668,23.6156818 77.486981,23.9481818 C77.8210937,24.2806818 77.9873508,24.6911364 77.9873508,25.1763636 C77.9873508,25.7220455 77.7859239,26.1611364 77.379873,26.4872727 C76.9738221,26.8134091 76.4095073,26.9772727 75.6821327,26.9772727 C74.668604,26.9772727 73.7398026,26.7211364 72.892531,26.2120455 L72.4433172,27.8125 C73.2314396,28.3120455 74.2705463,28.5586364 75.565433,28.5586364 C76.9722235,28.5586364 78.0640848,28.2102273 78.8474113,27.5086364 C79.5635956,26.8690909 79.9200891,26.0386364 79.9200891,25.0188636 C79.9200891,24.19 79.6754994,23.4963636 79.1879186,22.9427273 C78.6971405,22.3827273 77.9361947,21.8990909 76.9002854,21.4822727 C76.0530138,21.1529545 75.4679168,20.8427273 75.1465931,20.5579545 C74.7773106,20.2509091 74.5934686,19.8579545 74.5934686,19.3838636 C74.5934686,18.9575 74.7549298,18.5947727 75.0762536,18.3004545 C75.4567265,17.9663636 75.9858715,17.8009091 76.6652874,17.8009091 C77.525348,17.8009091 78.2926883,17.9838636 78.9721041,18.3529545 L79.4532904,16.7859091 C78.729113,16.4072727 77.8162978,16.2179545 76.7196407,16.2179545 C75.4918962,16.2179545 74.5087415,16.5313636 73.7701765,17.1597727 Z" id="Clip-23" fill="#BFBFBF"></path>
                    <path d="M82.2764632,18.1525 L82.2764632,19.7338636 L81.0087531,19.7338636 L81.0087531,21.1768182 L82.2764632,21.1768182 L82.2764632,25.5343182 C82.2764632,26.6256818 82.4922777,27.4020455 82.9191107,27.865 C83.349141,28.3263636 83.9454283,28.5570455 84.7079727,28.5570455 C85.3282395,28.5570455 85.8302079,28.4854545 86.2090822,28.3454545 L86.1547289,26.8865909 C85.9293227,26.9470455 85.6431687,26.9772727 85.2994642,26.9772727 C84.5465116,26.9772727 84.1708345,26.4443182 84.1708345,25.3752273 L84.1708345,21.1784091 L86.2986052,21.1784091 L86.2986052,19.7338636 L84.1708345,19.7338636 L84.1708345,17.5829545 L82.2764632,18.1525 Z" id="Clip-26" fill="#BFBFBF"></path>
                    <path d="M88.5590618,20.8411364 C89.3391911,19.9868182 90.3910867,19.5604545 91.7131501,19.5604545 C92.9888533,19.5604545 94.0151709,19.9804545 94.7873071,20.8236364 C95.5290694,21.6397727 95.8967532,22.6945455 95.8967532,23.9879545 C95.8967532,25.3179545 95.5162804,26.4077273 94.753736,27.2604545 C93.9528245,28.1386364 92.8945344,28.5761364 91.5708724,28.5761364 C90.2967678,28.5761364 89.2816406,28.1545455 88.523892,27.3145455 C87.7677421,26.4729545 87.3904665,25.4118182 87.3904665,24.1311364 C87.3904665,22.7915909 87.7805311,21.6954545 88.5590618,20.8411364 Z M89.8747307,26.1356818 C90.2935706,26.8277273 90.8754703,27.1697727 91.6284229,27.1697727 C92.3653893,27.1697727 92.9440918,26.8197727 93.3613331,26.1197727 C93.7162279,25.5375 93.895274,24.8454545 93.895274,24.0484091 C93.895274,23.2529545 93.7242211,22.5688636 93.3773193,21.9977273 C92.972867,21.3088636 92.3941646,20.9652273 91.6444092,20.9652273 C90.8690758,20.9652273 90.2807816,21.3104545 89.8747307,21.9977273 C89.5278289,22.5704545 89.3583746,23.2656818 89.3583746,24.0881818 C89.3583746,24.8836364 89.5278289,25.5677273 89.8747307,26.1356818 Z" id="Clip-29" fill="#BFBFBF"></path>
                    <path d="M100.294572,20.0218182 C99.8533516,20.3654545 99.5320278,20.8236364 99.3290024,21.3915909 L99.2746491,21.3915909 L99.202711,19.7370455 L97.5241541,19.7370455 C97.5705142,20.5547727 97.5960922,21.4631818 97.5960922,22.4575 L97.5769087,28.3820455 L99.5064498,28.3820455 L99.5064498,23.8447727 C99.5064498,23.1575 99.667911,22.5895455 99.9892348,22.1393182 C100.358517,21.6270455 100.884465,21.3725 101.562282,21.3725 C101.778097,21.3725 101.979524,21.3915909 102.171359,21.425 L102.171359,19.5954545 C102.027482,19.5715909 101.866021,19.5604545 101.690172,19.5604545 C101.188204,19.5604545 100.723004,19.7131818 100.294572,20.0218182 Z" id="Clip-32" fill="#BFBFBF"></path>
                    <path d="M104.155253,20.9302273 C104.905008,20.0059091 105.918537,19.5429545 107.19424,19.5429545 C108.445964,19.5429545 109.393949,20.0059091 110.038195,20.9302273 C110.54496,21.6636364 110.802338,22.5720455 110.802338,23.6506818 C110.802338,23.9959091 110.779957,24.2838636 110.731999,24.5209091 L104.943375,24.5209091 C104.964158,25.3752273 105.243917,26.0290909 105.782654,26.4793182 C106.268636,26.8818182 106.900093,27.0838636 107.677025,27.0838636 C108.533889,27.0838636 109.315616,26.9470455 110.019012,26.675 L110.321152,28.0081818 C109.499458,28.3645455 108.527494,28.5427273 107.408456,28.5427273 C106.062413,28.5427273 105.004123,28.1481818 104.236783,27.3590909 C103.467844,26.5715909 103.084174,25.5136364 103.084174,24.1852273 C103.084174,22.8822727 103.440667,21.7956818 104.155253,20.9302273 Z M105.512486,21.6556818 C105.192761,22.0725 105.000926,22.5704545 104.943375,23.1511364 L108.96232,23.1511364 C108.975109,22.5831818 108.848818,22.09 108.588242,21.6763636 C108.254129,21.1402273 107.74097,20.8745455 107.048765,20.8745455 C106.417308,20.8745455 105.907347,21.1354545 105.512486,21.6556818 Z" id="Clip-35" fill="#BFBFBF"></path>
                    <path d="M39.759417,6.28909091 C40.2645827,6.20954545 40.8065168,6.16659091 41.3932124,6.16659091 C42.4307204,6.16659091 43.2108497,6.3925 43.7383961,6.84113636 C44.328289,7.34863636 44.6240347,8.07409091 44.6240347,9.01590909 C44.6240347,10.0770455 44.3043096,10.8756818 43.666458,11.4134091 C43.0765651,11.9065909 42.2356881,12.1547727 41.1486227,12.1547727 C40.6066886,12.1547727 40.1446858,12.1309091 39.759417,12.0831818 L39.759417,6.28909091 Z M40.707402,11.3768182 C40.8241017,11.3959091 41.0383175,11.4022727 41.3500495,11.4022727 C42.0742269,11.4022727 42.6353445,11.2018182 43.030205,10.8009091 C43.4234669,10.3984091 43.6232951,9.81136364 43.6232951,9.04295455 C43.6232951,8.35568182 43.4410518,7.82909091 43.0765651,7.46159091 C42.7088813,7.09409091 42.1749403,6.91113636 41.471545,6.91113636 C41.1726021,6.91113636 40.9184206,6.93181818 40.707402,6.97159091 L40.707402,11.3768182 Z" id="Clip-38" fill="#BFBFBF"></path>
                    <path d="M46.3233737,8.39704545 C46.7070439,7.98022727 47.2233999,7.76863636 47.8724419,7.76863636 C48.4991031,7.76863636 49.0042688,7.97545455 49.3847417,8.38909091 C49.7460311,8.79 49.9266758,9.30863636 49.9266758,9.94340909 C49.9266758,10.5972727 49.7396366,11.1302273 49.3655582,11.5518182 C48.9722963,11.9829545 48.452743,12.1993182 47.8021024,12.1993182 C47.1754412,12.1993182 46.67667,11.9909091 46.3057888,11.5772727 C45.9349077,11.1636364 45.7494671,10.6434091 45.7494671,10.0134091 C45.7494671,9.35477273 45.9397036,8.81545455 46.3233737,8.39704545 Z M46.9692184,10.9997727 C47.1738425,11.3370455 47.4599965,11.5072727 47.829279,11.5072727 C48.192167,11.5072727 48.4751238,11.3338636 48.6797478,10.9886364 C48.8571953,10.7054545 48.9451197,10.3665909 48.9451197,9.97363636 C48.9451197,9.58227273 48.8587939,9.24659091 48.6893396,8.96659091 C48.4895114,8.62613636 48.2065547,8.4575 47.8388708,8.4575 C47.4583979,8.4575 47.167448,8.62613636 46.9692184,8.96659091 C46.7997641,9.24659091 46.715037,9.58863636 46.715037,9.99113636 C46.715037,10.3840909 46.7997641,10.7197727 46.9692184,10.9997727 Z" id="Clip-41" fill="#BFBFBF"></path>
                    <path d="M57.038961,7.85613636 L56.1085609,7.85613636 L55.5906063,9.84 C55.4627162,10.3363636 55.3652,10.8009091 55.301255,11.2384091 L55.275677,11.2384091 C55.1877526,10.7881818 55.0726516,10.3236364 54.9335711,9.84 L54.3516714,7.85613636 L53.5795353,7.85613636 L52.9736562,9.88295455 C52.8073991,10.4302273 52.6906994,10.8836364 52.6203599,11.2368182 L52.602775,11.2368182 C52.5276396,10.8056818 52.4301235,10.3506818 52.3150224,9.87340909 L51.8322375,7.85454545 L50.8570759,7.85454545 L52.111997,12.1022727 L52.9896424,12.1022727 L53.5795353,10.2568182 C53.7250102,9.80977273 53.8385126,9.35318182 53.9216411,8.88545455 L53.939226,8.88545455 C54.0271504,9.34045455 54.1406528,9.79704545 54.2813319,10.2568182 L54.836055,12.1022727 L55.7041087,12.1022727 L57.038961,7.85613636 L57.038961,7.85454545 L57.038961,7.85613636 Z" id="Clip-44" fill="#BFBFBF"></path>
                    <path d="M59.6127482,8.00568182 C59.3953352,8.13931818 59.2322753,8.31113636 59.1203716,8.51795455 L59.0947935,8.51795455 L59.050032,7.85295455 L58.2171481,7.85295455 C58.2395289,8.29204545 58.2523179,8.69613636 58.2523179,9.06840909 L58.2523179,12.1006818 L59.2019015,12.1006818 L59.2019015,9.58227273 C59.2019015,9.30386364 59.2882272,9.06045455 59.4640761,8.85522727 C59.6383262,8.64840909 59.8669297,8.54659091 60.1482878,8.54659091 C60.7221944,8.54659091 61.0083484,8.92045455 61.0083484,9.66977273 L61.0083484,12.1022727 L61.957932,12.1022727 L61.957932,9.55681818 C61.957932,8.93477273 61.7948722,8.46545455 61.4655553,8.15045455 C61.2033807,7.89431818 60.8724652,7.76545455 60.4728088,7.76545455 C60.1578796,7.76545455 59.870127,7.84659091 59.6127482,8.00568182 Z" id="Clip-47" fill="#BFBFBF"></path>
                    <polygon id="Fill-49" fill="#BFBFBF" points="63.6252985 12.1022727 64.5732834 12.1022727 64.5732834 5.90727273 63.6252985 5.90727273"></polygon>
                    <path d="M66.5539805,8.39704545 C66.9376507,7.98022727 67.4540068,7.76863636 68.1030487,7.76863636 C68.72971,7.76863636 69.233277,7.97545455 69.6153486,8.38909091 C69.9782366,8.79 70.1588813,9.30863636 70.1588813,9.94340909 C70.1588813,10.5972727 69.9702434,11.1302273 69.596165,11.5518182 C69.2045018,11.9829545 68.6833498,12.1993182 68.0343078,12.1993182 C67.406048,12.1993182 66.9056782,11.9909091 66.5363957,11.5772727 C66.1655145,11.1636364 65.980074,10.6434091 65.980074,10.0134091 C65.980074,9.35477273 66.1687118,8.81545455 66.5539805,8.39704545 Z M67.1998253,10.9997727 C67.406048,11.3370455 67.692202,11.5072727 68.0598859,11.5072727 C68.4227739,11.5072727 68.7073292,11.3338636 68.9119533,10.9886364 C69.0878021,10.7054545 69.1741279,10.3665909 69.1741279,9.97363636 C69.1741279,9.58227273 69.0894007,9.24659091 68.9183478,8.96659091 C68.7201182,8.62613636 68.4371615,8.4575 68.0694776,8.4575 C67.6874061,8.4575 67.3980549,8.62613636 67.1998253,8.96659091 C67.030371,9.24659091 66.9472424,9.58863636 66.9472424,9.99113636 C66.9472424,10.3840909 67.030371,10.7197727 67.1998253,10.9997727 Z" id="Clip-51" fill="#BFBFBF"></path>
                    <path d="M71.5512841,8.13613636 C71.9477433,7.89272727 72.4369227,7.76863636 73.0140266,7.76863636 C74.1298672,7.76863636 74.6893862,8.35409091 74.6893862,9.52659091 L74.6893862,11.0888636 C74.6893862,11.5136364 74.7101683,11.8525 74.7501339,12.1022727 L73.8980665,12.1022727 L73.827727,11.6138636 L73.802149,11.6138636 C73.5096005,12.0020455 73.0955565,12.1993182 72.555221,12.1993182 C72.1523674,12.1993182 71.8262477,12.0704545 71.5800594,11.8127273 C71.3594491,11.5820455 71.2475453,11.2925 71.2475453,10.9488636 C71.2475453,10.4302273 71.4633597,10.0340909 71.9029818,9.76045455 C72.3378079,9.48681818 72.9516802,9.35318182 73.7414012,9.35795455 L73.7414012,9.28 C73.7414012,8.72 73.4472541,8.44 72.8573612,8.44 C72.4353241,8.44 72.0628443,8.54659091 71.7431192,8.755 L71.5512841,8.13613636 Z M72.3793722,11.3418182 C72.5008677,11.4531818 72.657533,11.5072727 72.841375,11.5072727 C73.0491963,11.5072727 73.2442286,11.4420455 73.4200775,11.3115909 C73.5991235,11.1795455 73.7078301,11.0140909 73.750993,10.8072727 C73.7605847,10.7627273 73.7653806,10.7070455 73.7653806,10.6434091 L73.7653806,9.98795455 C72.7182808,9.96886364 72.1971289,10.2552273 72.1971289,10.8422727 C72.1971289,11.0634091 72.256278,11.2304545 72.3793722,11.3418182 Z" id="Clip-54" fill="#BFBFBF"></path>
                    <path d="M79.1591433,5.90568182 L80.1087269,5.90568182 L80.1087269,10.9568182 C80.1087269,11.3720455 80.1183187,11.7522727 80.1406994,12.1022727 L79.2998224,12.1022727 L79.2550609,11.4197727 L79.2294828,11.4197727 C78.9609137,11.9384091 78.5005096,12.1993182 77.8578621,12.1993182 C77.3447033,12.1993182 76.9162716,11.9988636 76.5757644,11.5963636 C76.2368557,11.1938636 76.0674014,10.6720455 76.0674014,10.0309091 C76.0674014,9.34363636 76.252842,8.78840909 76.6205259,8.36363636 C76.9770194,7.96590909 77.4166414,7.76704545 77.9377934,7.76704545 C78.5117,7.76704545 78.912955,7.96113636 79.1399598,8.34454545 L79.1591433,8.34454545 L79.1591433,5.90568182 Z M77.3063363,11.0188636 C77.5109603,11.2988636 77.7891212,11.4388636 78.1360229,11.4388636 C78.4461563,11.4388636 78.6971405,11.3227273 78.8857783,11.0888636 C79.0680217,10.8725 79.1591433,10.6131818 79.1591433,10.3109091 L79.1591433,9.60136364 C79.1591433,9.48204545 79.1495516,9.38181818 79.1335653,9.30545455 C79.079212,9.07954545 78.9625124,8.88704545 78.7882622,8.73431818 C78.6124134,8.58 78.3997962,8.50204545 78.1552065,8.50204545 C77.8003116,8.50204545 77.5221507,8.64204545 77.3207239,8.92204545 C77.1176984,9.20045455 77.0153864,9.56 77.0153864,9.9975 C77.0153864,10.4159091 77.1129026,10.7563636 77.3063363,11.0188636 Z" id="Clip-57" fill="#BFBFBF"></path>
                    <path d="M84.6504222,8.39704545 C85.0324937,7.98022727 85.5488498,7.76863636 86.201089,7.76863636 C86.8277503,7.76863636 87.3313173,7.97545455 87.7101916,8.38909091 C88.0730796,8.79 88.2553229,9.30863636 88.2553229,9.94340909 C88.2553229,10.5972727 88.0682837,11.1302273 87.6926067,11.5518182 C87.3009435,11.9829545 86.7797915,12.1993182 86.1291509,12.1993182 C85.5040883,12.1993182 85.0053171,11.9909091 84.6312387,11.5772727 C84.2603576,11.1636364 84.074917,10.6434091 84.074917,10.0134091 C84.074917,9.35477273 84.2667521,8.81545455 84.6504222,8.39704545 Z M85.2946683,10.9997727 C85.5024897,11.3370455 85.787045,11.5072727 86.1547289,11.5072727 C86.5176169,11.5072727 86.8037709,11.3338636 87.008395,10.9886364 C87.1826452,10.7054545 87.2721682,10.3665909 87.2721682,9.97363636 C87.2721682,9.58227273 87.1858424,9.24659091 87.0163881,8.96659091 C86.8165599,8.62613636 86.5352018,8.4575 86.1659193,8.4575 C85.7854464,8.4575 85.4944965,8.62613636 85.2946683,8.96659091 C85.125214,9.24659091 85.0420855,9.58863636 85.0420855,9.99113636 C85.0420855,10.3840909 85.1268126,10.7197727 85.2946683,10.9997727 Z" id="Clip-60" fill="#BFBFBF"></path>
                    <path d="M91.0113534,8.00568182 C90.795539,8.13931818 90.6308806,8.31113636 90.5189768,8.51795455 L90.4949974,8.51795455 L90.4486372,7.85295455 L89.6173519,7.85295455 C89.6381341,8.29204545 89.6493244,8.69613636 89.6493244,9.06840909 L89.6493244,12.1006818 L90.598908,12.1006818 L90.598908,9.58227273 C90.598908,9.30386364 90.6868325,9.06045455 90.8626813,8.85522727 C91.0385301,8.64840909 91.2655349,8.54659091 91.546893,8.54659091 C92.1223982,8.54659091 92.4085522,8.92045455 92.4085522,9.66977273 L92.4085522,12.1022727 L93.3565372,12.1022727 L93.3565372,9.55681818 C93.3565372,8.93477273 93.1934774,8.46545455 92.8641605,8.15045455 C92.6003873,7.89431818 92.2678732,7.76545455 91.8730126,7.76545455 C91.5564848,7.76545455 91.2687322,7.84659091 91.0113534,8.00568182 Z" id="Clip-63" fill="#BFBFBF"></path>
                    <path d="M97.7655466,7.07659091 L97.7655466,7.85454545 L97.1420826,7.85454545 L97.1420826,8.56409091 L97.7655466,8.56409091 L97.7655466,10.7038636 C97.7655466,11.24 97.8710558,11.6218182 98.0820744,11.8477273 C98.2946916,12.0752273 98.5856415,12.1897727 98.9581213,12.1897727 C99.2634587,12.1897727 99.5080485,12.1547727 99.6950876,12.0831818 L99.6727069,11.3672727 C99.5608031,11.3975 99.4185254,11.4134091 99.2490711,11.4134091 C98.8813872,11.4134091 98.6975453,11.1493182 98.6975453,10.6259091 L98.6975453,8.56409091 L99.7414478,8.56409091 L99.7398492,8.56409091 L99.7398492,7.85454545 L98.6959467,7.85454545 L98.6959467,6.79818182 L97.7655466,7.07659091 Z" id="Clip-66" fill="#BFBFBF"></path>
                    <path d="M101.057117,5.90568182 L101.057117,12.1006818 L102.005102,12.1006818 L102.005102,9.54568182 C102.005102,9.41363636 102.021088,9.30068182 102.048265,9.20840909 C102.212923,8.76772727 102.513465,8.54659091 102.954685,8.54659091 C103.526993,8.54659091 103.811549,8.92522727 103.811549,9.68727273 L103.811549,12.1022727 L104.762731,12.1022727 L104.762731,9.5775 C104.762731,8.94909091 104.602868,8.47340909 104.281544,8.15204545 C104.022567,7.89590909 103.696447,7.76704545 103.304784,7.76704545 C102.750061,7.76704545 102.321629,8.00090909 102.024285,8.46704545 L102.005102,8.46704545 L102.005102,5.90568182 L101.057117,5.90568182 Z" id="Clip-69" fill="#BFBFBF"></path>
                    <path d="M106.677884,8.44159091 C107.043969,7.98818182 107.541142,7.76227273 108.167803,7.76227273 C108.781675,7.76227273 109.248474,7.98818182 109.563403,8.44159091 C109.819184,8.80272727 109.943876,9.24818182 109.943876,9.77795455 C109.943876,9.94659091 109.931087,10.0881818 109.908707,10.2043182 L107.063153,10.2043182 C107.074343,10.6259091 107.211825,10.9440909 107.475598,11.1668182 C107.715392,11.3656818 108.025526,11.4627273 108.407597,11.4627273 C108.828036,11.4627273 109.211706,11.3975 109.558608,11.2622727 L109.70728,11.9177273 C109.302827,12.0943182 108.826437,12.1818182 108.273313,12.1818182 C107.61308,12.1818182 107.091928,11.9877273 106.714653,11.6011364 C106.337377,11.2145455 106.150338,10.6927273 106.150338,10.0404545 C106.150338,9.39931818 106.324588,8.86795455 106.677884,8.44159091 Z M107.344511,8.79795455 C107.187846,9.00477273 107.093527,9.24818182 107.063153,9.53454545 L109.037456,9.53454545 C109.045449,9.25295455 108.983102,9.01113636 108.855212,8.80909091 C108.688955,8.54659091 108.43957,8.41454545 108.099062,8.41454545 C107.790528,8.41454545 107.536346,8.54181818 107.344511,8.79795455 Z" id="Clip-72" fill="#BFBFBF"></path>
                </g>
            </g>
        </g>
    </g>
</svg>