<?xml version="1.0" encoding="UTF-8"?>
<svg width="123px" height="36px" viewBox="0 0 123 36" version="1.1" xmlns="http://www.w3.org/2000/svg" xmlns:xlink="http://www.w3.org/1999/xlink">
    <!-- Generator: Sketch 43.2 (39069) - http://www.bohemiancoding.com/sketch -->
    <title>google-play</title>
    <desc>Created with Sketch.</desc>
    <defs></defs>
    <g id="Website" stroke="none" stroke-width="1" fill="none" fill-rule="evenodd">
        <g id="mobile-release" transform="translate(-182.000000, -1090.000000)">
            <g id="Footer" transform="translate(30.000000, 1044.000000)">
                <g id="google-play" transform="translate(152.000000, 46.000000)">
                    <rect id="Rectangle" fill="#000000" x="0" y="0" width="123" height="36" rx="3.6"></rect>
                    <g id="Group" opacity="0.75" transform="translate(37.000000, 5.000000)">
                        <path d="M5.93676201,4.02097727 C5.93676201,4.77665909 5.7085913,5.37961364 5.26017245,5.83302273 C4.74520382,6.36756818 4.0717833,6.63643182 3.249418,6.63643182 C2.46191212,6.63643182 1.79007612,6.36279545 1.23866355,5.82347727 C0.68725098,5.27620455 0.411544696,4.60484091 0.411544696,3.80143182 C0.411544696,2.99643182 0.68725098,2.32665909 1.23866355,1.78415909 C1.79007612,1.24006818 2.46191212,0.966431818 3.249418,0.966431818 C3.64079416,0.966431818 4.01474062,1.04756818 4.37125737,1.19711364 C4.72618959,1.34665909 5.01457203,1.55029545 5.22531304,1.80006818 L4.74837286,2.27734091 C4.38393352,1.84938636 3.88639459,1.63779545 3.249418,1.63779545 C2.67423765,1.63779545 2.17669872,1.83665909 1.7552167,2.23915909 C1.33690372,2.64165909 1.12774723,3.16188636 1.12774723,3.80143182 C1.12774723,4.44097727 1.33690372,4.96597727 1.7552167,5.36847727 C2.17669872,5.76620455 2.67423765,5.96984091 3.249418,5.96984091 C3.85787325,5.96984091 4.37125737,5.76620455 4.77530968,5.36370455 C5.04150885,5.09961364 5.19362266,4.73211364 5.23323563,4.26438636 L3.249418,4.26438636 L3.249418,3.61052273 L5.89556452,3.61052273 C5.9272549,3.75211364 5.93676201,3.88893182 5.93676201,4.02097727" id="Fill-78" fill="#FFFFFF"></path>
                        <path d="M5.93676201,4.02097727 C5.93676201,4.77665909 5.7085913,5.37961364 5.26017245,5.83302273 C4.74520382,6.36756818 4.0717833,6.63643182 3.249418,6.63643182 C2.46191212,6.63643182 1.79007612,6.36279545 1.23866355,5.82347727 C0.68725098,5.27620455 0.411544696,4.60484091 0.411544696,3.80143182 C0.411544696,2.99643182 0.68725098,2.32665909 1.23866355,1.78415909 C1.79007612,1.24006818 2.46191212,0.966431818 3.249418,0.966431818 C3.64079416,0.966431818 4.01474062,1.04756818 4.37125737,1.19711364 C4.72618959,1.34665909 5.01457203,1.55029545 5.22531304,1.80006818 L4.74837286,2.27734091 C4.38393352,1.84938636 3.88639459,1.63779545 3.249418,1.63779545 C2.67423765,1.63779545 2.17669872,1.83665909 1.7552167,2.23915909 C1.33690372,2.64165909 1.12774723,3.16188636 1.12774723,3.80143182 C1.12774723,4.44097727 1.33690372,4.96597727 1.7552167,5.36847727 C2.17669872,5.76620455 2.67423765,5.96984091 3.249418,5.96984091 C3.85787325,5.96984091 4.37125737,5.76620455 4.77530968,5.36370455 C5.04150885,5.09961364 5.19362266,4.73211364 5.23323563,4.26438636 L3.249418,4.26438636 L3.249418,3.61052273 L5.89556452,3.61052273 C5.9272549,3.75211364 5.93676201,3.88893182 5.93676201,4.02097727 Z" id="Stroke-80" stroke="#FFFFFF" stroke-width="0.5"></path>
                        <polygon id="Fill-82" fill="#FFFFFF" points="10.1347863 1.75727273 7.64867621 1.75727273 7.64867621 3.47386364 9.89077042 3.47386364 9.89077042 4.12772727 7.64867621 4.12772727 7.64867621 5.84431818 10.1347863 5.84431818 10.1347863 6.51090909 6.94514983 6.51090909 6.94514983 1.09068182 10.1347863 1.09068182"></polygon>
                        <polygon id="Stroke-84" stroke="#FFFFFF" stroke-width="0.5" points="10.1347863 1.75727273 7.64867621 1.75727273 7.64867621 3.47386364 9.89077042 3.47386364 9.89077042 4.12772727 7.64867621 4.12772727 7.64867621 5.84431818 10.1347863 5.84431818 10.1347863 6.51090909 6.94514983 6.51090909 6.94514983 1.09068182 10.1347863 1.09068182"></polygon>
                        <polygon id="Fill-86" fill="#FFFFFF" points="13.0979951 6.51138636 12.3944687 6.51138636 12.3944687 1.75775 10.8701615 1.75775 10.8701615 1.09115909 14.6238867 1.09115909 14.6238867 1.75775 13.0979951 1.75775"></polygon>
                        <polygon id="Stroke-88" stroke="#FFFFFF" stroke-width="0.5" points="13.0979951 6.51138636 12.3944687 6.51138636 12.3944687 1.75775 10.8701615 1.75775 10.8701615 1.09115909 14.6238867 1.09115909 14.6238867 1.75775 13.0979951 1.75775"></polygon>
                        <polygon id="Fill-90" fill="#FFFFFF" points="17.3403859 6.51090909 18.0423278 6.51090909 18.0423278 1.09068182 17.3403859 1.09068182"></polygon>
                        <polygon id="Stroke-92" stroke="#FFFFFF" stroke-width="0.5" points="17.3403859 6.51090909 18.0423278 6.51090909 18.0423278 1.09068182 17.3403859 1.09068182"></polygon>
                        <polygon id="Fill-93" fill="#FFFFFF" points="21.1582841 6.51138636 20.4610958 6.51138636 20.4610958 1.75775 18.9304506 1.75775 18.9304506 1.09115909 22.6889294 1.09115909 22.6889294 1.75775 21.1582841 1.75775"></polygon>
                        <polygon id="Stroke-94" stroke="#FFFFFF" stroke-width="0.5" points="21.1582841 6.51138636 20.4610958 6.51138636 20.4610958 1.75775 18.9304506 1.75775 18.9304506 1.09115909 22.6889294 1.09115909 22.6889294 1.75775 21.1582841 1.75775"></polygon>
                        <path d="M26.3087627,5.36020455 C26.7143996,5.76588636 27.2071849,5.96952273 27.7950414,5.96952273 C28.3781444,5.96952273 28.8756833,5.76588636 29.2765666,5.36020455 C29.6806189,4.95293182 29.8850218,4.43270455 29.8850218,3.80270455 C29.8850218,3.16952273 29.6806189,2.64929545 29.2765666,2.24361364 C28.8756833,1.83634091 28.3781444,1.63270455 27.7950414,1.63270455 C27.2071849,1.63270455 26.7143996,1.83634091 26.3087627,2.24361364 C25.9047104,2.64929545 25.7003075,3.16952273 25.7003075,3.80270455 C25.7003075,4.43270455 25.9047104,4.95293182 26.3087627,5.36020455 M29.7962888,5.81361364 C29.2575524,6.36247727 28.5904699,6.63611364 27.7950414,6.63611364 C26.9948594,6.63611364 26.327777,6.36247727 25.7890406,5.81361364 C25.2518887,5.26634091 24.984105,4.59656818 24.984105,3.80270455 C24.984105,3.00725 25.2518887,2.33588636 25.7890406,1.78861364 C26.327777,1.23975 26.9948594,0.966113636 27.7950414,0.966113636 C28.5857164,0.966113636 29.2527988,1.23975 29.7931197,1.79338636 C30.3350252,2.34384091 30.6012244,3.01043182 30.6012244,3.80270455 C30.6012244,4.59656818 30.3350252,5.26634091 29.7962888,5.81361364" id="Fill-95" fill="#FFFFFF"></path>
                        <path d="M26.3087627,5.36020455 C26.7143996,5.76588636 27.2071849,5.96952273 27.7950414,5.96952273 C28.3781444,5.96952273 28.8756833,5.76588636 29.2765666,5.36020455 C29.6806189,4.95293182 29.8850218,4.43270455 29.8850218,3.80270455 C29.8850218,3.16952273 29.6806189,2.64929545 29.2765666,2.24361364 C28.8756833,1.83634091 28.3781444,1.63270455 27.7950414,1.63270455 C27.2071849,1.63270455 26.7143996,1.83634091 26.3087627,2.24361364 C25.9047104,2.64929545 25.7003075,3.16952273 25.7003075,3.80270455 C25.7003075,4.43270455 25.9047104,4.95293182 26.3087627,5.36020455 Z M29.7962888,5.81361364 C29.2575524,6.36247727 28.5904699,6.63611364 27.7950414,6.63611364 C26.9948594,6.63611364 26.327777,6.36247727 25.7890406,5.81361364 C25.2518887,5.26634091 24.984105,4.59656818 24.984105,3.80270455 C24.984105,3.00725 25.2518887,2.33588636 25.7890406,1.78861364 C26.327777,1.23975 26.9948594,0.966113636 27.7950414,0.966113636 C28.5857164,0.966113636 29.2527988,1.23975 29.7931197,1.79338636 C30.3350252,2.34384091 30.6012244,3.01043182 30.6012244,3.80270455 C30.6012244,4.59656818 30.3350252,5.26634091 29.7962888,5.81361364 Z" id="Stroke-96" stroke="#FFFFFF" stroke-width="0.5"></path>
                        <polygon id="Fill-97" fill="#FFFFFF" points="31.5893303 6.51138636 31.5893303 1.09115909 32.443386 1.09115909 35.0990397 5.30547727 35.1291455 5.30547727 35.0990397 4.26502273 35.0990397 1.09115909 35.802566 1.09115909 35.802566 6.51138636 35.0689338 6.51138636 32.2865187 2.08865909 32.2564128 2.08865909 32.2865187 3.13388636 32.2865187 6.51138636"></polygon>
                        <polygon id="Stroke-98" stroke="#FFFFFF" stroke-width="0.5" points="31.5893303 6.51138636 31.5893303 1.09115909 32.443386 1.09115909 35.0990397 5.30547727 35.1291455 5.30547727 35.0990397 4.26502273 35.0990397 1.09115909 35.802566 1.09115909 35.802566 6.51138636 35.0689338 6.51138636 32.2865187 2.08865909 32.2564128 2.08865909 32.2865187 3.13388636 32.2865187 6.51138636"></polygon>
                    </g>
                    <path d="M97.1556704,26.8806818 L98.8590282,26.8806818 L98.8590282,15.5804545 L97.1556704,15.5804545 L97.1556704,26.8806818 Z M112.47163,19.6515909 L110.517918,24.5515909 L110.460875,24.5515909 L108.440614,19.6515909 L106.60891,19.6515909 L109.643264,26.4972727 L107.911385,30.3075 L109.68763,30.3075 L114.361961,19.6515909 L112.47163,19.6515909 Z M102.826663,25.5968182 C102.272082,25.5968182 101.497252,25.3231818 101.497252,24.6390909 C101.497252,23.7640909 102.462224,23.43 103.29885,23.43 C104.046743,23.43 104.398506,23.5938636 104.851679,23.8102273 C104.718579,24.8554545 103.812234,25.5968182 102.826663,25.5968182 L102.826663,25.5968182 Z M103.032651,19.4034091 C101.804649,19.4034091 100.527527,19.9427273 100.003051,21.1343182 L101.509928,21.7627273 C101.834755,21.1343182 102.432118,20.9306818 103.062757,20.9306818 C103.945334,20.9306818 104.839002,21.4556818 104.851679,22.3831818 L104.851679,22.5025 C104.544282,22.3259091 103.886707,22.065 103.077017,22.065 C101.452886,22.065 99.7986479,22.9527273 99.7986479,24.6088636 C99.7986479,26.1234091 101.128059,27.0970455 102.623845,27.0970455 C103.766283,27.0970455 104.398506,26.5863636 104.794636,25.9897727 L104.851679,25.9897727 L104.851679,26.8647727 L106.49324,26.8647727 L106.49324,22.5295455 C106.49324,20.525 104.984778,19.4034091 103.032651,19.4034091 L103.032651,19.4034091 Z M92.5288753,21.0293182 L90.109315,21.0293182 L90.109315,17.1538636 L92.5288753,17.1538636 C93.7980749,17.1538636 94.5222001,18.1975 94.5222001,19.09 C94.5222001,19.965 93.7980749,21.0293182 92.5288753,21.0293182 L92.5288753,21.0293182 Z M92.4860933,15.5820455 L88.4107108,15.5820455 L88.4107108,26.8806818 L90.109315,26.8806818 L90.109315,22.5995455 L92.4860933,22.5995455 C94.3716708,22.5995455 96.2223888,21.2440909 96.2223888,19.09 C96.2223888,16.9359091 94.3685017,15.5820455 92.4860933,15.5820455 L92.4860933,15.5820455 Z M70.2743077,25.6015909 C69.1001792,25.6015909 68.1177775,24.6263636 68.1177775,23.2836364 C68.1177775,21.9281818 69.1001792,20.9402273 70.2743077,20.9402273 C71.4310065,20.9402273 72.3436894,21.9281818 72.3436894,23.2836364 C72.3436894,24.6263636 71.4310065,25.6015909 70.2743077,25.6015909 L70.2743077,25.6015909 Z M72.2232659,20.2831818 L72.1662233,20.2831818 C71.7843542,19.8329545 71.053891,19.4256818 70.128532,19.4256818 C68.1890809,19.4256818 66.4144197,21.1152273 66.4144197,23.2836364 C66.4144197,25.4393182 68.1890809,27.1161364 70.128532,27.1161364 C71.053891,27.1161364 71.7843542,26.7056818 72.1662233,26.2427273 L72.2232659,26.2427273 L72.2232659,26.7947727 C72.2232659,28.2647727 71.4310065,29.0538636 70.1554688,29.0538636 C69.1144399,29.0538636 68.4679562,28.3077273 68.201757,27.6809091 L66.7202319,28.295 C67.148052,29.3147727 68.2778139,30.5684091 70.1554688,30.5684091 C72.1535471,30.5684091 73.8378907,29.4006818 73.8378907,26.5640909 L73.8378907,19.6595455 L72.2232659,19.6595455 L72.2232659,20.2831818 Z M75.0136037,26.8806818 L76.7169615,26.8806818 L76.7169615,15.5804545 L75.0136037,15.5804545 L75.0136037,26.8806818 Z M79.2252548,23.1515909 C79.1808883,21.6688636 80.3851227,20.91 81.2486854,20.91 C81.925275,20.91 82.4988708,21.2440909 82.6905976,21.7245455 L79.2252548,23.1515909 Z M84.5096253,21.8709091 C84.1895525,21.0118182 83.2023972,19.4256818 81.1916428,19.4256818 C79.198318,19.4256818 77.5377422,20.9831818 77.5377422,23.2709091 C77.5377422,25.425 79.1808883,27.1161364 81.381785,27.1161364 C83.1611997,27.1161364 84.1895525,26.0390909 84.6110345,25.4122727 L83.2911303,24.5388636 C82.850634,25.1784091 82.2501014,25.6015909 81.381785,25.6015909 C80.5198068,25.6015909 79.9018444,25.2102273 79.5057147,24.4354545 L84.6886759,22.3084091 L84.5096253,21.8709091 Z M43.2344931,20.6045455 L43.2344931,22.2384091 L47.1656844,22.2384091 C47.0500146,23.1515909 46.7426179,23.8229545 46.2720158,24.2922727 C45.69842,24.8554545 44.8047513,25.4838636 43.2344931,25.4838636 C40.8133483,25.4838636 38.9182637,23.5445455 38.9182637,21.1438636 C38.9182637,18.7415909 40.8133483,16.8038636 43.2344931,16.8038636 C44.5417212,16.8038636 45.494017,17.3113636 46.1975434,17.97 L47.3574112,16.8165909 C46.3750095,15.8859091 45.0677814,15.1715909 43.2344931,15.1715909 C39.9149261,15.1715909 37.1261728,17.8506818 37.1261728,21.1438636 C37.1261728,24.4354545 39.9149261,27.1161364 43.2344931,27.1161364 C45.026584,27.1161364 46.3750095,26.5338636 47.4334681,25.4393182 C48.5188636,24.3606818 48.8563661,22.8477273 48.8563661,21.6259091 C48.8563661,21.2440909 48.8246757,20.8972727 48.767633,20.6045455 L43.2344931,20.6045455 Z M53.3278783,25.6015909 C52.1521653,25.6015909 51.1380733,24.6390909 51.1380733,23.2709091 C51.1380733,21.8852273 52.1521653,20.9402273 53.3278783,20.9402273 C54.5020068,20.9402273 55.5113454,21.8852273 55.5113454,23.2709091 C55.5113454,24.6390909 54.5020068,25.6015909 53.3278783,25.6015909 L53.3278783,25.6015909 Z M53.3278783,19.4256818 C51.1840243,19.4256818 49.439469,21.0420455 49.439469,23.2709091 C49.439469,25.4838636 51.1840243,27.1161364 53.3278783,27.1161364 C55.4701479,27.1161364 57.2147031,25.4838636 57.2147031,23.2709091 C57.2147031,21.0420455 55.4701479,19.4256818 53.3278783,19.4256818 L53.3278783,19.4256818 Z M61.8098079,25.6015909 C60.6372639,25.6015909 59.6263409,24.6390909 59.6263409,23.2709091 C59.6263409,21.8852273 60.6372639,20.9402273 61.8098079,20.9402273 C62.9839364,20.9402273 63.999613,21.8852273 63.999613,23.2709091 C63.999613,24.6390909 62.9839364,25.6015909 61.8098079,25.6015909 L61.8098079,25.6015909 Z M61.8098079,19.4256818 C59.6707074,19.4256818 57.9229831,21.0420455 57.9229831,23.2709091 C57.9229831,25.4838636 59.6707074,27.1161364 61.8098079,27.1161364 C63.9552464,27.1161364 65.7029708,25.4838636 65.7029708,23.2709091 C65.7029708,21.0420455 63.9552464,19.4256818 61.8098079,19.4256818 L61.8098079,19.4256818 Z" id="Fill-99" fill="#BFBFBF"></path>
                    <g id="Group-2" opacity="0.75" transform="translate(8.000000, 6.000000)">
                        <path d="M1.24497872,0.575909091 C0.977195026,0.854318182 0.821912177,1.28704545 0.821912177,1.84863636 L0.821912177,1.84863636 L0.821912177,21.84 C0.821912177,22.4015909 0.977195026,22.8343182 1.24497872,23.1111364 L1.24497872,23.1111364 L1.31152851,23.1731818 L12.6012255,11.9747727 L12.6012255,11.7075 L1.31152851,0.509090909 L1.24497872,0.575909091 Z" id="Fill-101" fill="#58C3E7"></path>
                        <path d="M12.6012255,11.7075 L12.6012255,11.9747727 L16.3597043,15.7102273 L16.4484373,15.6593182 L20.9056889,13.1472727 C22.1780576,12.4297727 22.1780576,11.2540909 20.9056889,10.5397727 L20.9056889,10.5397727 L16.4484373,8.02454545 L16.3628733,7.97363636 L12.6012255,11.7075 Z" id="Fill-103" fill="#FCC805"></path>
                        <path d="M1.24497872,23.1111364 C1.66646074,23.5518182 2.35731097,23.6043182 3.14006329,23.1652273 L3.14006329,23.1652273 L16.4484373,15.6593182 L12.6012255,11.8411364 L1.24497872,23.1111364 Z" id="Fill-105" fill="#E8414B"></path>
                        <path d="M1.24497872,0.575909091 L12.6012255,11.8411364 L16.4484373,8.02454545 L3.14006329,0.518636364 C2.77245491,0.315 2.4270298,0.217954545 2.11804862,0.217954545 L2.11804862,0.217954545 C1.76945446,0.217954545 1.46839588,0.342045455 1.24497872,0.575909091" id="Fill-107" fill="#63B665"></path>
                    </g>
                </g>
            </g>
        </g>
    </g>
</svg>